<?xml version="1.0" encoding="UTF-8" ?>
<!DOCTYPE svg PUBLIC "-//W3C//DTD SVG 1.1//EN" "http://www.w3.org/Graphics/SVG/1.1/DTD/svg11.dtd">
<svg width="180pt" height="180pt" viewBox="0 0 180 180" version="1.1" xmlns="http://www.w3.org/2000/svg">
<path fill="#ffffff" style="fill-opacity:0" d=" M 0.00 0.00 L 180.00 0.00 L 180.00 180.00 L 0.00 180.00 L 0.00 0.00 Z" />
<path fill="#ff0000" d=" M 43.54 17.47 C 56.77 9.82 71.73 4.92 87.04 4.21 C 103.29 2.89 119.43 7.95 133.53 15.75 C 119.11 27.27 104.50 38.56 90.07 50.09 C 89.99 42.26 90.00 34.44 89.95 26.61 C 63.63 26.41 38.37 43.99 30.21 69.08 C 22.44 91.79 28.05 118.68 45.69 135.31 C 68.18 157.24 105.02 158.27 131.67 143.65 C 151.19 133.09 164.64 112.26 166.32 90.15 C 168.20 75.56 165.25 61.09 164.11 46.59 C 172.94 59.55 175.73 75.58 175.96 90.99 C 176.65 127.27 150.56 161.64 115.95 171.90 C 84.26 182.53 47.20 171.65 25.26 146.74 C 4.15 122.69 -2.01 86.26 10.80 56.81 C 17.39 40.79 28.75 26.62 43.54 17.47 Z" />
</svg>
